<?xml version="1.0" encoding="UTF-8"?>
<svg xmlns="http://www.w3.org/2000/svg" xmlns:xlink="http://www.w3.org/1999/xlink" width="11pt" height="14pt" viewBox="0 0 11 14" version="1.1">
<g id="surface1">
<path style=" stroke:none;fill-rule:nonzero;fill:rgb(0%,0%,0%);fill-opacity:1;" d="M 4.933594 13.71875 C 0.773438 7.957031 0 7.367188 0 5.25 C 0 2.351562 2.460938 0 5.5 0 C 8.539062 0 11 2.351562 11 5.25 C 11 7.367188 10.226562 7.957031 6.066406 13.71875 C 5.792969 14.09375 5.207031 14.09375 4.933594 13.71875 Z M 5.5 7.4375 C 6.765625 7.4375 7.792969 6.457031 7.792969 5.25 C 7.792969 4.042969 6.765625 3.0625 5.5 3.0625 C 4.234375 3.0625 3.207031 4.042969 3.207031 5.25 C 3.207031 6.457031 4.234375 7.4375 5.5 7.4375 Z M 5.5 7.4375 "/>
</g>
</svg>
